<svg classname="size-6" width="24" height="24" viewBox="0 0 24 24" fill="none" xmlns="http://www.w3.org/2000/svg">
  <path fillrule="evenodd" cliprule="evenodd" d="M7 3C6.44772 3 6 3.44772 6 4V17C6 17.5523 6.44772 18 7 18H20C20.5523 18 21 17.5523 21 17V4C21 3.44772 20.5523 3 20 3H7ZM7.5 5H19.5V16.5H7.5V5ZM3 7.5C3 7.22386 3.22386 7 3.5 7H5.25V18C5.25 19.2426 6.25736 20.25 7.5 20.25H18.5V21.5C18.5 21.7761 18.2761 22 18 22H6C4.75736 22 3.75 20.9926 3.75 19.75V7.5H3.5C3.22386 7.5 3 7.27614 3 7.5Z" fill="currentColor"/>
  <path d="M9 7.75C9 7.33579 9.33579 7 9.75 7H17.25C17.6642 7 18 7.33579 18 7.75C18 8.16421 17.6642 8.5 17.25 8.5H9.75C9.33579 8.5 9 8.16421 9 7.75ZM9.75 10C9.33579 10 9 10.3358 9 10.75C9 11.1642 9.33579 11.5 9.75 11.5H15.25C15.6642 11.5 16 11.1642 16 10.75C16 10.3358 15.6642 10 15.25 10H9.75ZM9 13.75C9 13.3358 9.33579 13 9.75 13H13.25C13.6642 13 14 13.3358 14 13.75C14 14.1642 13.6642 14.5 13.25 14.5H9.75C9.33579 14.5 9 14.1642 9 13.75Z" fill="currentColor"/>
</svg>